{
    "asset" : {
        "generator" : "Khronos glTF Blender I/O v1.2.75",
        "version" : "2.0"
    },
    "scene" : 0,
    "scenes" : [
        {
            "name" : "Scene",
            "nodes" : [
                0
            ]
        }
    ],
    "nodes" : [
        {
            "mesh" : 0,
            "name" : "Arrow",
            "scale" : [
                0.44999998807907104,
                0.17999997735023499,
                0.44999998807907104
            ]
        }
    ],
    "materials" : [
        {
            "doubleSided" : true,
            "emissiveFactor" : [
                0,
                0,
                0
            ],
            "name" : "Green",
            "pbrMetallicRoughness" : {
                "baseColorFactor" : [
                    0.0331047847867012,
                    0.14126330614089966,
                    0.012983037158846855,
                    1
                ],
                "metallicFactor" : 0,
                "roughnessFactor" : 0.699999988079071
            }
        }
    ],
    "meshes" : [
        {
            "name" : "Cylinder.001",
            "primitives" : [
                {
                    "attributes" : {
                        "POSITION" : 0,
                        "NORMAL" : 1,
                        "TEXCOORD_0" : 2
                    },
                    "indices" : 3,
                    "material" : 0
                }
            ]
        }
    ],
    "accessors" : [
        {
            "bufferView" : 0,
            "componentType" : 5126,
            "count" : 364,
            "max" : [
                0.9995074272155762,
                0.11111114174127579,
                1.000000238418579
            ],
            "min" : [
                -1.0000001192092896,
                -0.11111114174127579,
                -1.0745073556900024
            ],
            "type" : "VEC3"
        },
        {
            "bufferView" : 1,
            "componentType" : 5126,
            "count" : 364,
            "type" : "VEC3"
        },
        {
            "bufferView" : 2,
            "componentType" : 5126,
            "count" : 364,
            "type" : "VEC2"
        },
        {
            "bufferView" : 3,
            "componentType" : 5123,
            "count" : 618,
            "type" : "SCALAR"
        }
    ],
    "bufferViews" : [
        {
            "buffer" : 0,
            "byteLength" : 4368,
            "byteOffset" : 0
        },
        {
            "buffer" : 0,
            "byteLength" : 4368,
            "byteOffset" : 4368
        },
        {
            "buffer" : 0,
            "byteLength" : 2912,
            "byteOffset" : 8736
        },
        {
            "buffer" : 0,
            "byteLength" : 1236,
            "byteOffset" : 11648
        }
    ],
    "buffers" : [
        {
            "byteLength" : 12884,
            "uri" : "data:application/octet-stream;base64,"
        }
    ]
}
